<?xml version="1.0" encoding="utf-8"?>
<!-- Generator: Adobe Illustrator 27.5.0, SVG Export Plug-In . SVG Version: 6.00 Build 0)  -->
<svg version="1.1" xmlns="http://www.w3.org/2000/svg" xmlns:xlink="http://www.w3.org/1999/xlink" x="0px" y="0px"
	 viewBox="0 0 500 500" style="enable-background:new 0 0 500 500;" xml:space="preserve">
<g id="BACKGROUND">
	<g id="Layer_2">
	</g>
	<g id="XMLID_30_">
		<g>
			<rect id="XMLID_65_" style="fill:#FFFFFF;" width="500" height="500"/>
		</g>
	</g>
</g>
<g id="OBJECTS">
	<g>
		<linearGradient id="SVGID_1_" gradientUnits="userSpaceOnUse" x1="250" y1="73.4487" x2="250" y2="444.5513">
			<stop  offset="0" style="stop-color:#FFFFFF"/>
			<stop  offset="0.4257" style="stop-color:#DCDDDE"/>
			<stop  offset="1" style="stop-color:#A7A9AC"/>
		</linearGradient>
		<circle style="opacity:0.3;fill:url(#SVGID_1_);" cx="250" cy="259" r="185.551"/>
		<g>
			<path style="fill:#02797D;" d="M140.402,343.04c0,0-43.041-15.242-37.121-37.68c0,0,2.547-4.405,9.457-0.258
				c0,0-17.087-13.897-8.132-23.573c0,0,3.049-3.61,10.845,1.395c0,0-9.616-20.337,0.781-27.243c0,0,13.226-2.483,16.268,23.65
				c0,0,15.165-18.539,11.163,16.716c0,0,3.713-5.716,8.361-3.208c2.574,0.779,13.916,10.599-8.133,45.39L140.402,343.04z"/>
			<path style="fill:#FFFFFF;" d="M138.373,330.683c-0.377,0.246-0.88,0.137-1.127-0.237c-0.92-1.408-1.787-2.886-2.608-4.417
				c-0.007-0.012-0.012-0.023-0.018-0.035c-0.21-0.392-0.412-0.795-0.616-1.194c-7.503-1.156-17.835-8.376-23.398-12.636
				l-0.355-0.27c-0.364-0.264-0.445-0.772-0.181-1.137c0.264-0.364,0.773-0.445,1.137-0.181l0.39,0.296
				c8.679,6.655,16.221,10.885,21.505,12.102c-2.516-5.273-4.533-11.023-6.141-16.742c-0.051-0.098-0.079-0.203-0.087-0.316
				c-0.438-1.571-0.847-3.137-1.226-4.689c-5.652-3.843-12.512-9.84-12.582-9.901c-0.339-0.297-0.373-0.81-0.077-1.149
				c0.28-0.32,0.753-0.368,1.09-0.124c0.02,0.014,0.04,0.03,0.059,0.046c0.063,0.056,5.73,4.992,10.947,8.742
				c-3.526-15.457-4.273-28.867-4.284-29.094c-0.023-0.449,0.322-0.832,0.771-0.855c0.193-0.01,0.374,0.049,0.519,0.154
				c0.193,0.14,0.323,0.362,0.336,0.618c0.013,0.246,0.899,16.104,5.283,33.109c1.377-3.915,3.657-7.35,5.284-9.777
				c0.735-1.096,1.568-2.338,1.633-2.707c0.005-0.439,0.359-0.797,0.801-0.805c0.183-0.003,0.353,0.055,0.491,0.155
				c0.2,0.145,0.333,0.379,0.337,0.646c0.012,0.723-0.577,1.631-1.908,3.618c-1.922,2.867-4.802,7.178-5.822,11.903
				c1.576,5.603,3.55,11.23,6.006,16.387c0.29-5.683,2.234-11.109,5.674-15.556l0.121-0.159c0.264-0.364,0.773-0.445,1.137-0.181
				c0.364,0.264,0.445,0.773,0.181,1.137l-0.151,0.199c-2.244,2.9-5.9,9.053-5.336,17.784c0.775,1.433,1.592,2.818,2.455,4.14
				C138.856,329.932,138.75,330.436,138.373,330.683z"/>
		</g>
		<g>
			<path style="fill:#31C0B2;" d="M142.341,344.11c0,0-32.605,7.42-37.726-8.785c0,0-0.149-3.723,5.751-3.862
				c0,0-16.016-1.91-14.262-11.404c0,0,0.473-3.428,7.258-3.383c0,0-13.913-8.821-10.184-17.165c0,0,7.213-6.715,19.327,8.267
				c0,0,2.126-17.411,13.453,5.974c0,0,0.06-4.991,3.919-5.259c1.898-0.526,12.762,1.111,12.738,31.275L142.341,344.11z"/>
			<path style="fill:#FFFFFF;" d="M136.247,337.257c-0.137,0.3-0.491,0.429-0.79,0.295c-1.12-0.511-2.236-1.087-3.343-1.712
				c-0.009-0.005-0.017-0.01-0.025-0.015c-0.284-0.16-0.566-0.331-0.849-0.498c-5.096,2.222-14.317,1.8-19.428,1.341l-0.325-0.028
				c-0.329-0.021-0.578-0.304-0.557-0.633c0.021-0.329,0.304-0.578,0.633-0.557l0.357,0.031c7.977,0.721,14.301,0.385,18.047-0.931
				c-3.621-2.278-7.121-5.047-10.356-7.957c-0.07-0.041-0.128-0.095-0.178-0.162c-0.886-0.801-1.752-1.609-2.594-2.422
				c-5.003-0.165-11.596-1.19-11.663-1.201c-0.326-0.051-0.548-0.355-0.498-0.681c0.048-0.307,0.322-0.523,0.626-0.504
				c0.018,0.001,0.037,0.003,0.054,0.006c0.061,0.01,5.501,0.846,10.197,1.124c-8.234-8.185-13.947-16.192-14.043-16.328
				c-0.19-0.269-0.126-0.641,0.142-0.831c0.115-0.082,0.251-0.117,0.381-0.108c0.174,0.011,0.341,0.097,0.45,0.251
				c0.104,0.147,6.862,9.614,16.233,18.422c-0.681-2.962-0.615-5.98-0.558-8.12c0.026-0.966,0.055-2.061-0.049-2.314
				c-0.169-0.274-0.09-0.634,0.18-0.812c0.112-0.073,0.24-0.104,0.364-0.096c0.181,0.011,0.354,0.105,0.461,0.268
				c0.29,0.443,0.282,1.235,0.236,2.986c-0.067,2.527-0.161,6.323,1.058,9.646c3.17,2.851,6.594,5.56,10.133,7.789
				c-2.046-3.63-2.967-7.75-2.579-11.849l0.013-0.146c0.021-0.329,0.304-0.578,0.633-0.557c0.329,0.021,0.578,0.304,0.557,0.633
				l-0.016,0.183c-0.253,2.673-0.107,7.913,3.661,13.095c1.041,0.583,2.089,1.121,3.14,1.601
				C136.252,336.603,136.384,336.957,136.247,337.257z"/>
		</g>
		<g>
			<path style="fill:#02797D;" d="M363.867,343.04c0,0,43.041-15.242,37.121-37.68c0,0-2.547-4.405-9.457-0.258
				c0,0,17.087-13.897,8.132-23.573c0,0-3.048-3.61-10.845,1.395c0,0,9.616-20.337-0.78-27.243c0,0-13.226-2.483-16.268,23.65
				c0,0-15.165-18.539-11.163,16.716c0,0-3.713-5.716-8.361-3.208c-2.574,0.779-13.916,10.599,8.133,45.39L363.867,343.04z"/>
			<path style="fill:#FFFFFF;" d="M365.895,330.683c0.377,0.246,0.88,0.137,1.127-0.237c0.919-1.408,1.787-2.886,2.608-4.417
				c0.007-0.012,0.012-0.023,0.018-0.035c0.21-0.392,0.412-0.795,0.616-1.194c7.503-1.156,17.835-8.376,23.398-12.636l0.355-0.27
				c0.364-0.264,0.445-0.772,0.181-1.137c-0.264-0.364-0.773-0.445-1.137-0.181l-0.39,0.296
				c-8.679,6.655-16.221,10.885-21.505,12.102c2.516-5.273,4.533-11.023,6.141-16.742c0.051-0.098,0.079-0.203,0.087-0.316
				c0.438-1.571,0.847-3.137,1.226-4.689c5.652-3.843,12.512-9.84,12.582-9.901c0.339-0.297,0.373-0.81,0.077-1.149
				c-0.28-0.32-0.753-0.368-1.09-0.124c-0.02,0.014-0.04,0.03-0.059,0.046c-0.063,0.056-5.73,4.992-10.947,8.742
				c3.526-15.457,4.273-28.867,4.284-29.094c0.023-0.449-0.322-0.832-0.771-0.855c-0.193-0.01-0.374,0.049-0.519,0.154
				c-0.193,0.14-0.323,0.362-0.336,0.618c-0.013,0.246-0.899,16.104-5.283,33.109c-1.378-3.915-3.657-7.35-5.284-9.777
				c-0.735-1.096-1.568-2.338-1.632-2.707c-0.005-0.439-0.359-0.797-0.801-0.805c-0.183-0.003-0.353,0.055-0.491,0.155
				c-0.2,0.145-0.333,0.379-0.337,0.646c-0.012,0.723,0.577,1.631,1.908,3.618c1.922,2.867,4.802,7.178,5.822,11.903
				c-1.576,5.603-3.55,11.23-6.006,16.387c-0.289-5.683-2.234-11.109-5.674-15.556l-0.121-0.159
				c-0.264-0.364-0.772-0.445-1.137-0.181c-0.364,0.264-0.445,0.773-0.181,1.137l0.151,0.199c2.243,2.9,5.9,9.053,5.336,17.784
				c-0.775,1.433-1.592,2.818-2.455,4.14C365.413,329.932,365.519,330.436,365.895,330.683z"/>
		</g>
		<g>
			<path style="fill:#31C0B2;" d="M361.928,344.11c0,0,32.605,7.42,37.726-8.785c0,0,0.148-3.723-5.751-3.862
				c0,0,16.016-1.91,14.262-11.404c0,0-0.473-3.428-7.258-3.383c0,0,13.914-8.821,10.184-17.165c0,0-7.213-6.715-19.327,8.267
				c0,0-2.126-17.411-13.453,5.974c0,0-0.06-4.991-3.919-5.259c-1.898-0.526-12.762,1.111-12.738,31.275L361.928,344.11z"/>
			<path style="fill:#FFFFFF;" d="M368.021,337.257c0.137,0.3,0.491,0.429,0.79,0.295c1.12-0.511,2.236-1.087,3.343-1.712
				c0.009-0.005,0.017-0.01,0.025-0.015c0.284-0.16,0.566-0.331,0.849-0.498c5.096,2.222,14.317,1.8,19.428,1.341l0.325-0.028
				c0.329-0.021,0.578-0.304,0.557-0.633c-0.021-0.329-0.304-0.578-0.633-0.557l-0.357,0.031
				c-7.977,0.721-14.301,0.385-18.047-0.931c3.621-2.278,7.121-5.047,10.356-7.957c0.07-0.041,0.128-0.095,0.178-0.162
				c0.886-0.801,1.752-1.609,2.594-2.422c5.003-0.165,11.596-1.19,11.663-1.201c0.326-0.051,0.548-0.355,0.498-0.681
				c-0.048-0.307-0.322-0.523-0.626-0.504c-0.018,0.001-0.037,0.003-0.055,0.006c-0.061,0.01-5.501,0.846-10.197,1.124
				c8.234-8.185,13.947-16.192,14.043-16.328c0.19-0.269,0.126-0.641-0.142-0.831c-0.115-0.082-0.251-0.117-0.381-0.108
				c-0.174,0.011-0.341,0.097-0.45,0.251c-0.104,0.147-6.862,9.614-16.233,18.422c0.681-2.962,0.615-5.98,0.558-8.12
				c-0.026-0.966-0.055-2.061,0.049-2.314c0.169-0.274,0.09-0.634-0.18-0.812c-0.112-0.073-0.24-0.104-0.364-0.096
				c-0.181,0.011-0.354,0.105-0.461,0.268c-0.29,0.443-0.282,1.235-0.236,2.986c0.067,2.527,0.161,6.323-1.058,9.646
				c-3.169,2.851-6.594,5.56-10.133,7.789c2.046-3.63,2.967-7.75,2.579-11.849l-0.013-0.146c-0.021-0.329-0.304-0.578-0.632-0.557
				c-0.329,0.021-0.578,0.304-0.557,0.633l0.016,0.183c0.253,2.673,0.107,7.913-3.661,13.095c-1.041,0.583-2.089,1.121-3.14,1.601
				C368.017,336.603,367.885,336.957,368.021,337.257z"/>
		</g>
		<g id="XMLID_126_">
			<path id="XMLID_118_" style="fill:#02797D;" d="M389.641,354.25H114.708c-2.859,0-5.177-2.318-5.177-5.177l0,0
				c0-2.859,2.318-5.177,5.177-5.177h274.933c2.859,0,5.177,2.318,5.177,5.177l0,0C394.818,351.932,392.5,354.25,389.641,354.25z"/>
			<g id="XMLID_125_">
				<g id="XMLID_720_">
					<polygon id="XMLID_109_" style="fill:#025289;" points="355.516,145.75 148.832,145.75 125.965,178.732 378.384,178.732 					
						"/>
					<rect id="XMLID_119_" x="130.729" y="240.407" style="fill:#FEAD19;" width="242.89" height="100.41"/>
					<rect id="XMLID_578_" x="130.729" y="240.407" style="fill:#F26A40;" width="242.89" height="6.743"/>
					<rect id="XMLID_715_" x="130.729" y="247.15" style="opacity:0.15;" width="242.89" height="2.089"/>
					<rect id="XMLID_575_" x="140.721" y="178.732" style="fill:#FEAD19;" width="218.559" height="61.675"/>
					<rect id="XMLID_606_" x="139.671" y="178.732" style="fill:#F26A40;" width="225.007" height="3.921"/>
					<path id="XMLID_433_" style="fill:#F26A40;" d="M375.305,343.896H129.044c-1.7,0-3.078-1.378-3.078-3.078l0,0
						c0-1.7,1.378-3.078,3.078-3.078h246.262c1.7,0,3.078,1.378,3.078,3.078l0,0C378.384,342.517,377.005,343.896,375.305,343.896z"
						/>
					<polygon id="XMLID_577_" style="fill:#025289;" points="286.361,258.29 217.988,258.29 204.869,280.083 299.48,280.083 					
						"/>
					<rect id="XMLID_546_" x="212.298" y="280.083" style="fill:#FEAD19;" width="79.752" height="57.656"/>
					<path id="XMLID_579_" style="fill:#FFFFFF;" d="M160.669,283.93h-15.501v-12.795c0-2.337,1.895-4.232,4.232-4.232h7.036
						c2.338,0,4.232,1.895,4.232,4.232V283.93z"/>
					<path id="XMLID_581_" style="fill:#FFFFFF;" d="M190.792,283.93h-15.501v-12.795c0-2.337,1.895-4.232,4.232-4.232h7.036
						c2.338,0,4.232,1.895,4.232,4.232V283.93z"/>
					<path id="XMLID_596_" style="fill:#FFFFFF;" d="M160.669,312.074h-15.501v-12.795c0-2.337,1.895-4.232,4.232-4.232h7.036
						c2.338,0,4.232,1.895,4.232,4.232V312.074z"/>
					<path id="XMLID_585_" style="fill:#FFFFFF;" d="M190.792,312.074h-15.501v-12.795c0-2.337,1.895-4.232,4.232-4.232h7.036
						c2.338,0,4.232,1.895,4.232,4.232V312.074z"/>
					<rect id="XMLID_580_" x="144.435" y="283.93" style="fill:#F26A40;" width="17.37" height="2.247"/>
					<rect id="XMLID_607_" x="144.435" y="312.074" style="fill:#F26A40;" width="17.37" height="2.247"/>
					<rect id="XMLID_1080_" x="144.435" y="283.93" style="opacity:0.15;" width="8.405" height="2.247"/>
					<rect id="XMLID_1079_" x="144.435" y="312.074" style="opacity:0.15;" width="8.405" height="2.247"/>
					<rect id="XMLID_613_" x="174.356" y="283.93" style="fill:#F26A40;" width="17.37" height="2.247"/>
					<rect id="XMLID_610_" x="174.356" y="312.074" style="fill:#F26A40;" width="17.37" height="2.247"/>
					<rect id="XMLID_1082_" x="174.356" y="283.93" style="opacity:0.15;" width="8.685" height="2.247"/>
					<rect id="XMLID_1081_" x="174.356" y="312.074" style="opacity:0.15;" width="8.685" height="2.247"/>
					<g>
						<path id="XMLID_663_" style="fill:#FFFFFF;" d="M168.71,204.207h-15.501v-12.795c0-2.338,1.895-4.232,4.232-4.232h7.036
							c2.338,0,4.232,1.895,4.232,4.232V204.207z"/>
						<path id="XMLID_660_" style="fill:#FFFFFF;" d="M198.833,204.207h-15.501v-12.795c0-2.338,1.895-4.232,4.233-4.232h7.036
							c2.338,0,4.233,1.895,4.233,4.232V204.207z"/>
						<path id="XMLID_657_" style="fill:#FFFFFF;" d="M168.71,232.351h-15.501v-12.795c0-2.338,1.895-4.232,4.232-4.232h7.036
							c2.338,0,4.232,1.895,4.232,4.232V232.351z"/>
						<path id="XMLID_654_" style="fill:#FFFFFF;" d="M198.833,232.351h-15.501v-12.795c0-2.338,1.895-4.232,4.233-4.232h7.036
							c2.338,0,4.233,1.895,4.233,4.232V232.351z"/>
						<rect id="XMLID_651_" x="152.476" y="204.207" style="fill:#F26A40;" width="17.37" height="2.247"/>
						<rect id="XMLID_862_" x="152.476" y="204.207" style="opacity:0.15;" width="8.685" height="2.247"/>
						<rect id="XMLID_648_" x="152.476" y="232.351" style="fill:#F26A40;" width="17.37" height="2.247"/>
						<rect id="XMLID_1069_" x="152.476" y="232.351" style="opacity:0.15;" width="8.685" height="2.247"/>
						<rect id="XMLID_645_" x="182.397" y="204.207" style="fill:#F26A40;" width="17.37" height="2.247"/>
						<rect id="XMLID_1068_" x="182.397" y="204.207" style="opacity:0.15;" width="8.685" height="2.247"/>
						<rect id="XMLID_642_" x="182.397" y="232.351" style="fill:#F26A40;" width="17.37" height="2.247"/>
						<rect id="XMLID_1070_" x="182.397" y="232.351" style="opacity:0.15;" width="8.685" height="2.247"/>
						<path id="XMLID_687_" style="fill:#FFFFFF;" d="M242.588,204.207h-15.501v-12.795c0-2.338,1.895-4.232,4.232-4.232h7.036
							c2.338,0,4.232,1.895,4.232,4.232V204.207z"/>
						<path id="XMLID_684_" style="fill:#FFFFFF;" d="M272.711,204.207H257.21v-12.795c0-2.338,1.895-4.232,4.233-4.232h7.036
							c2.338,0,4.233,1.895,4.233,4.232V204.207z"/>
						<path id="XMLID_681_" style="fill:#FFFFFF;" d="M242.588,232.351h-15.501v-12.795c0-2.338,1.895-4.232,4.232-4.232h7.036
							c2.338,0,4.232,1.895,4.232,4.232V232.351z"/>
						<path id="XMLID_678_" style="fill:#FFFFFF;" d="M272.711,232.351H257.21v-12.795c0-2.338,1.895-4.232,4.233-4.232h7.036
							c2.338,0,4.233,1.895,4.233,4.232V232.351z"/>
						<rect id="XMLID_675_" x="226.354" y="204.207" style="fill:#F26A40;" width="17.37" height="2.247"/>
						<rect id="XMLID_672_" x="226.354" y="232.351" style="fill:#F26A40;" width="17.37" height="2.247"/>
						<rect id="XMLID_669_" x="256.276" y="204.207" style="fill:#F26A40;" width="17.37" height="2.247"/>
						<rect id="XMLID_666_" x="256.276" y="232.351" style="fill:#F26A40;" width="17.37" height="2.247"/>
						<rect id="XMLID_1074_" x="256.276" y="204.207" style="opacity:0.15;" width="8.685" height="2.247"/>
						<rect id="XMLID_33_" x="226.354" y="204.207" style="opacity:0.15;" width="8.685" height="2.247"/>
						<rect id="XMLID_35_" x="226.354" y="232.351" style="opacity:0.15;" width="8.685" height="2.247"/>
						<rect id="XMLID_1073_" x="256.276" y="232.351" style="opacity:0.15;" width="8.685" height="2.247"/>
						<path id="XMLID_711_" style="fill:#FFFFFF;" d="M316.467,204.207h-15.501v-12.795c0-2.338,1.895-4.232,4.233-4.232h7.036
							c2.337,0,4.232,1.895,4.232,4.232V204.207z"/>
						<path id="XMLID_708_" style="fill:#FFFFFF;" d="M346.59,204.207h-15.501v-12.795c0-2.338,1.895-4.232,4.233-4.232h7.036
							c2.338,0,4.233,1.895,4.233,4.232V204.207z"/>
						<path id="XMLID_705_" style="fill:#FFFFFF;" d="M316.467,232.351h-15.501v-12.795c0-2.338,1.895-4.232,4.233-4.232h7.036
							c2.337,0,4.232,1.895,4.232,4.232V232.351z"/>
						<path id="XMLID_702_" style="fill:#FFFFFF;" d="M346.59,232.351h-15.501v-12.795c0-2.338,1.895-4.232,4.233-4.232h7.036
							c2.338,0,4.233,1.895,4.233,4.232V232.351z"/>
						<rect id="XMLID_699_" x="300.233" y="204.207" style="fill:#F26A40;" width="17.37" height="2.247"/>
						<rect id="XMLID_696_" x="300.233" y="232.351" style="fill:#F26A40;" width="17.37" height="2.247"/>
						<rect id="XMLID_1076_" x="300.233" y="204.207" style="opacity:0.15;" width="9.419" height="2.247"/>
						<rect id="XMLID_1075_" x="300.233" y="232.351" style="opacity:0.15;" width="9.419" height="2.247"/>
						<rect id="XMLID_693_" x="330.154" y="204.207" style="fill:#F26A40;" width="17.37" height="2.247"/>
						<rect id="XMLID_690_" x="330.154" y="232.351" style="fill:#F26A40;" width="17.37" height="2.247"/>
						<rect id="XMLID_1078_" x="330.154" y="204.207" style="opacity:0.15;" width="8.685" height="2.247"/>
						<rect id="XMLID_1077_" x="330.154" y="232.351" style="opacity:0.15;" width="8.685" height="2.247"/>
					</g>
					<path id="XMLID_639_" style="fill:#FFFFFF;" d="M328.948,283.93h-15.501v-12.795c0-2.337,1.895-4.232,4.233-4.232h7.036
						c2.337,0,4.232,1.895,4.232,4.232V283.93z"/>
					<path id="XMLID_636_" style="fill:#FFFFFF;" d="M359.071,283.93H343.57v-12.795c0-2.337,1.895-4.232,4.232-4.232h7.036
						c2.338,0,4.233,1.895,4.233,4.232V283.93z"/>
					<path id="XMLID_633_" style="fill:#FFFFFF;" d="M328.948,312.074h-15.501v-12.795c0-2.337,1.895-4.232,4.233-4.232h7.036
						c2.337,0,4.232,1.895,4.232,4.232V312.074z"/>
					<path id="XMLID_630_" style="fill:#FFFFFF;" d="M359.071,312.074H343.57v-12.795c0-2.337,1.895-4.232,4.232-4.232h7.036
						c2.338,0,4.233,1.895,4.233,4.232V312.074z"/>
					<rect id="XMLID_627_" x="312.714" y="283.93" style="fill:#F26A40;" width="17.37" height="2.247"/>
					<rect id="XMLID_624_" x="312.714" y="312.074" style="fill:#F26A40;" width="17.37" height="2.247"/>
					<rect id="XMLID_1084_" x="312.714" y="283.93" style="opacity:0.15;" width="9.066" height="2.247"/>
					<rect id="XMLID_1083_" x="312.714" y="312.074" style="opacity:0.15;" width="9.066" height="2.247"/>
					<rect id="XMLID_621_" x="342.635" y="283.93" style="fill:#F26A40;" width="17.37" height="2.247"/>
					<rect id="XMLID_618_" x="342.635" y="312.074" style="fill:#F26A40;" width="17.37" height="2.247"/>
					<rect id="XMLID_1086_" x="342.635" y="283.93" style="opacity:0.15;" width="8.685" height="2.247"/>
					<rect id="XMLID_1085_" x="342.635" y="312.074" style="opacity:0.15;" width="8.685" height="2.247"/>
					<rect id="XMLID_716_" x="236.568" y="297.575" style="fill:#FFFFFF;" width="31.213" height="40.164"/>
					<rect id="XMLID_1087_" x="251.394" y="297.575" style="fill:#F26A40;" width="1.561" height="40.164"/>
					<g id="XMLID_1089_" style="opacity:0.1;">
						<polygon id="XMLID_1088_" points="241.112,320.137 239.811,320.137 242.713,312.453 244.014,312.453 						"/>
						<polygon id="XMLID_1090_" points="244.354,320.137 243.053,320.137 245.955,312.453 247.256,312.453 						"/>
					</g>
					<g id="XMLID_1092_" style="opacity:0.1;">
						<polygon id="XMLID_1094_" points="257.202,320.137 255.901,320.137 258.803,312.453 260.103,312.453 						"/>
						<polygon id="XMLID_1093_" points="260.444,320.137 259.143,320.137 262.045,312.453 263.345,312.453 						"/>
					</g>
				</g>
				<g id="XMLID_108_">
					<rect id="XMLID_123_" x="212.298" y="280.083" style="fill:#FFFFFF;" width="7.181" height="57.656"/>
					<rect id="XMLID_124_" x="284.869" y="280.083" style="fill:#FFFFFF;" width="7.181" height="57.656"/>
				</g>
				<rect id="XMLID_1095_" x="208.593" y="330.623" style="fill:#F26A40;" width="10.886" height="7.116"/>
				<rect id="XMLID_1097_" x="284.869" y="330.623" style="fill:#F26A40;" width="10.886" height="7.116"/>
				<rect id="XMLID_1096_" x="210.494" y="280.083" style="fill:#F26A40;" width="10.746" height="2.992"/>
				<rect id="XMLID_1099_" x="283.087" y="280.083" style="fill:#F26A40;" width="10.746" height="2.992"/>
			</g>
		</g>
		<rect id="XMLID_127_" x="0.026" y="354.25" style="fill:#FFFFFF;" width="499.948" height="145.75"/>
		<rect id="XMLID_1072_" x="221.282" y="209.263" style="opacity:0.15;" width="9.084" height="2.34"/>
		<rect id="XMLID_1071_" x="221.282" y="238.562" style="opacity:0.15;" width="9.084" height="2.34"/>
		
			<text id="XMLID_34_" transform="matrix(1 0 0 1 156.2549 100.188)" style="fill:#025289; font-family:'Boogaloo-Regular'; font-size:42.4282px;">UNIVERSITY</text>
		<g>
			<path id="XMLID_102_" style="fill:#025289;" d="M65.89,75.785l-27.44-6.352l8.462-36.553l23.697,5.486
				c3.479,0.805,5.647,4.279,4.841,7.758L69.039,73.82C68.712,75.232,67.302,76.112,65.89,75.785z"/>
			<path id="XMLID_101_" style="fill:#0286CB;" d="M71.003,76.969l27.44,6.352l8.462-36.553l-23.697-5.486
				c-3.479-0.806-6.953,1.362-7.758,4.841L69.039,73.82C68.712,75.232,69.591,76.642,71.003,76.969z"/>
			<g>
				<g id="XMLID_100_">
					<path style="fill:#FFFFFF;" d="M67.441,51.493c-0.037,0-0.075-0.004-0.112-0.013l-17.065-3.95
						c-0.27-0.063-0.438-0.331-0.375-0.6c0.063-0.269,0.335-0.436,0.6-0.375l17.065,3.95c0.27,0.063,0.438,0.331,0.375,0.6
						C67.874,51.337,67.668,51.493,67.441,51.493z"/>
				</g>
				<g id="XMLID_99_">
					<path style="fill:#FFFFFF;" d="M68.775,45.727c-0.037,0-0.075-0.004-0.112-0.013l-17.064-3.95
						c-0.27-0.063-0.438-0.331-0.375-0.6c0.063-0.269,0.337-0.436,0.6-0.375l17.064,3.95c0.27,0.063,0.438,0.331,0.375,0.6
						C69.208,45.571,69.002,45.727,68.775,45.727z"/>
				</g>
				<g id="XMLID_98_">
					<path style="fill:#FFFFFF;" d="M64.724,63.23c-0.037,0-0.075-0.004-0.112-0.013l-17.065-3.95
						c-0.27-0.063-0.438-0.331-0.375-0.6c0.063-0.269,0.336-0.437,0.6-0.375l17.065,3.95c0.27,0.063,0.438,0.331,0.375,0.6
						C65.157,63.074,64.951,63.23,64.724,63.23z"/>
				</g>
				<g id="XMLID_97_">
					<path style="fill:#FFFFFF;" d="M63.323,69.279c-0.037,0-0.075-0.004-0.112-0.013l-17.065-3.95
						c-0.269-0.063-0.438-0.331-0.375-0.6c0.063-0.268,0.336-0.438,0.6-0.374l17.065,3.95c0.27,0.063,0.438,0.331,0.375,0.6
						C63.757,69.122,63.551,69.279,63.323,69.279z"/>
				</g>
				<g id="XMLID_96_">
					<path style="fill:#FFFFFF;" d="M66.058,57.465c-0.037,0-0.075-0.004-0.112-0.013l-17.064-3.951
						c-0.27-0.063-0.438-0.331-0.375-0.6c0.063-0.269,0.334-0.438,0.6-0.375l17.064,3.951c0.27,0.063,0.438,0.331,0.375,0.6
						C66.491,57.308,66.285,57.465,66.058,57.465z"/>
				</g>
				<g id="XMLID_95_">
					<path style="fill:#FFFFFF;" d="M97.976,58.331c-0.037,0-0.075-0.004-0.112-0.013l-17.064-3.951
						c-0.27-0.063-0.438-0.331-0.375-0.6c0.063-0.269,0.334-0.436,0.6-0.374l17.064,3.951c0.27,0.063,0.438,0.331,0.375,0.6
						C98.409,58.174,98.203,58.331,97.976,58.331z"/>
				</g>
				<g id="XMLID_94_">
					<path style="fill:#FFFFFF;" d="M99.311,52.565c-0.037,0-0.075-0.004-0.112-0.013l-17.065-3.95
						c-0.27-0.063-0.438-0.331-0.375-0.6c0.063-0.269,0.338-0.438,0.6-0.375l17.065,3.95c0.27,0.063,0.438,0.331,0.375,0.6
						C99.744,52.409,99.538,52.565,99.311,52.565z"/>
				</g>
				<g id="XMLID_93_">
					<path style="fill:#FFFFFF;" d="M95.259,70.067c-0.037,0-0.075-0.004-0.112-0.013l-17.065-3.95
						c-0.27-0.063-0.438-0.331-0.375-0.6c0.063-0.269,0.336-0.436,0.6-0.375l17.065,3.95c0.27,0.063,0.438,0.331,0.375,0.6
						C95.693,69.911,95.487,70.067,95.259,70.067z"/>
				</g>
				<g id="XMLID_92_">
					<path style="fill:#FFFFFF;" d="M93.859,76.116c-0.037,0-0.075-0.004-0.112-0.013l-17.064-3.951
						c-0.27-0.063-0.438-0.331-0.375-0.6c0.063-0.268,0.336-0.435,0.6-0.374l17.064,3.951c0.27,0.063,0.438,0.331,0.375,0.6
						C94.292,75.96,94.086,76.116,93.859,76.116z"/>
				</g>
				<g id="XMLID_91_">
					<path style="fill:#FFFFFF;" d="M96.593,64.302c-0.037,0-0.075-0.004-0.112-0.013l-17.064-3.95
						c-0.27-0.063-0.438-0.331-0.375-0.6c0.063-0.269,0.335-0.437,0.6-0.375l17.064,3.95c0.27,0.063,0.438,0.331,0.375,0.6
						C97.027,64.145,96.821,64.302,96.593,64.302z"/>
				</g>
			</g>
		</g>
		<g>
			<path id="XMLID_76_" style="fill:#FEAD19;" d="M425.688,243.789c2.48-8.409,11.272-13.229,19.682-10.773
				c8.371,2.444,13.217,11.33,10.776,19.702c-1.538,5.275-5.534,9.148-10.441,10.692c-1.177,0.37-2.102,1.284-2.451,2.467
				l-0.195,0.662c-0.352,1.195-1.607,1.878-2.802,1.525l-9.519-2.808c-1.195-0.352-1.878-1.607-1.525-2.802l0.195-0.66
				c0.35-1.187,0.062-2.459-0.728-3.413C425.41,254.434,424.141,249.034,425.688,243.789z"/>
			<path id="XMLID_75_" style="fill:#F26A40;" d="M432.606,276.664L432.606,276.664c2.897,0.855,5.939-0.801,6.794-3.699
				l1.399-4.742l-10.493-3.095l-1.399,4.741C428.052,272.768,429.708,275.81,432.606,276.664z"/>
			<path id="XMLID_71_" style="fill:#F26A40;" d="M450.242,237.877c1.253,1.372,3.787,4.685,4.084,9.303
				c0.036,0.561-0.36,1.058-0.915,1.146l0,0c-0.599,0.095-1.157-0.32-1.244-0.92c-0.245-1.682-1.049-5.011-3.679-7.961
				c-0.424-0.476-0.355-1.212,0.155-1.594l0.146-0.11C449.237,237.406,449.865,237.464,450.242,237.877z"/>
			<g id="XMLID_53_">
				<g id="XMLID_69_">
					<path style="fill:#FEAD19;" d="M447.026,229.785c-0.217-0.074-0.339-0.306-0.274-0.529l3.404-11.537
						c0.067-0.228,0.306-0.357,0.534-0.29c0.218,0.058,0.358,0.306,0.29,0.534l-3.404,11.537c-0.067,0.228-0.306,0.357-0.534,0.29
						C447.037,229.788,447.031,229.786,447.026,229.785z"/>
				</g>
				<g id="XMLID_68_">
					<path style="fill:#FEAD19;" d="M460.245,254.821c-0.212-0.072-0.335-0.296-0.277-0.515c0.06-0.23,0.295-0.367,0.524-0.307
						l12.001,3.144c0.237,0.06,0.367,0.295,0.307,0.524c-0.06,0.23-0.295,0.367-0.524,0.307l-12.001-3.144
						C460.264,254.827,460.254,254.824,460.245,254.821z"/>
				</g>
				<g id="XMLID_66_">
					<path style="fill:#FEAD19;" d="M414.533,242.847c-0.212-0.072-0.335-0.296-0.277-0.515c0.06-0.23,0.295-0.367,0.524-0.307
						l6,1.572c0.236,0.057,0.367,0.295,0.307,0.524c-0.06,0.229-0.295,0.367-0.524,0.307l-6-1.572
						C414.552,242.853,414.542,242.85,414.533,242.847z"/>
				</g>
				<g id="XMLID_64_">
					<path style="fill:#FEAD19;" d="M458.091,239.23c-0.095-0.032-0.179-0.097-0.233-0.189c-0.12-0.205-0.052-0.468,0.153-0.588
						l10.699-6.279c0.205-0.121,0.469-0.051,0.588,0.153c0.12,0.205,0.052,0.468-0.153,0.588l-10.699,6.279
						C458.335,239.26,458.205,239.269,458.091,239.23z"/>
				</g>
				<g id="XMLID_63_">
					<path style="fill:#FEAD19;" d="M430,231.918c-0.095-0.032-0.178-0.097-0.233-0.189l-6.279-10.699
						c-0.12-0.205-0.052-0.468,0.153-0.588c0.204-0.12,0.469-0.051,0.588,0.153l6.279,10.699c0.12,0.205,0.052,0.468-0.153,0.588
						C430.243,231.947,430.113,231.956,430,231.918z"/>
				</g>
				<g id="XMLID_62_">
					<path style="fill:#FEAD19;" d="M460.617,246.135c-0.145-0.049-0.259-0.173-0.286-0.334c-0.04-0.234,0.117-0.456,0.35-0.496
						l6.113-1.053c0.234-0.04,0.456,0.117,0.496,0.35c0.04,0.234-0.117,0.456-0.35,0.496l-6.113,1.053
						C460.755,246.164,460.683,246.158,460.617,246.135z"/>
				</g>
				<g id="XMLID_61_">
					<path style="fill:#FEAD19;" d="M413.151,254.313c-0.145-0.049-0.258-0.173-0.286-0.334c-0.04-0.234,0.117-0.456,0.35-0.496
						l7.011-1.208c0.234-0.041,0.456,0.117,0.496,0.35c0.04,0.234-0.117,0.456-0.35,0.496l-7.011,1.208
						C413.288,254.341,413.216,254.335,413.151,254.313z"/>
				</g>
				<g id="XMLID_60_">
					<path style="fill:#FEAD19;" d="M436.905,229.392c-0.145-0.049-0.258-0.173-0.286-0.334l-1.061-6.16
						c-0.04-0.234,0.117-0.456,0.35-0.496c0.233-0.04,0.456,0.117,0.496,0.35l1.061,6.16c0.04,0.234-0.117,0.456-0.35,0.496
						C437.042,229.421,436.97,229.415,436.905,229.392z"/>
				</g>
				<g id="XMLID_58_">
					<path style="fill:#FEAD19;" d="M462.379,265.558c-0.052-0.017-0.101-0.045-0.144-0.083l-5.032-4.374
						c-0.179-0.155-0.198-0.427-0.042-0.606c0.156-0.179,0.427-0.199,0.606-0.042l5.032,4.374c0.179,0.155,0.198,0.427,0.042,0.606
						C462.723,265.568,462.539,265.612,462.379,265.558z"/>
				</g>
				<g id="XMLID_55_">
					<path style="fill:#FEAD19;" d="M423.432,238.056c-0.036-0.012-0.072-0.029-0.104-0.052l-10.25-6.989
						c-0.196-0.134-0.247-0.401-0.113-0.597c0.133-0.197,0.401-0.247,0.597-0.113l10.25,6.989c0.196,0.134,0.246,0.401,0.113,0.597
						C423.813,238.054,423.61,238.116,423.432,238.056z"/>
				</g>
				<g id="XMLID_54_">
					<path style="fill:#FEAD19;" d="M451.954,232.662c-0.036-0.012-0.072-0.03-0.104-0.052c-0.196-0.134-0.247-0.401-0.113-0.597
						l4.129-6.055c0.133-0.197,0.401-0.247,0.597-0.113c0.196,0.134,0.246,0.401,0.113,0.597l-4.129,6.055
						C452.335,232.66,452.132,232.722,451.954,232.662z"/>
				</g>
			</g>
		</g>
		<g id="XMLID_827_" style="opacity:0.1;">
			<g id="XMLID_677_">
				<polygon id="XMLID_673_" points="155.359,199.513 154.496,199.513 158.892,190.475 159.755,190.475 				"/>
				<polygon id="XMLID_823_" points="158.029,199.513 157.167,199.513 161.563,190.475 162.425,190.475 				"/>
			</g>
			<g id="XMLID_828_">
				<polygon id="XMLID_847_" points="187.955,199.513 187.093,199.513 191.489,190.475 192.351,190.475 				"/>
				<polygon id="XMLID_829_" points="190.626,199.513 189.763,199.513 194.159,190.475 195.022,190.475 				"/>
			</g>
			<g id="XMLID_851_">
				<polygon id="XMLID_860_" points="155.359,228.888 154.496,228.888 158.892,219.85 159.755,219.85 				"/>
				<polygon id="XMLID_858_" points="158.029,228.888 157.167,228.888 161.563,219.85 162.425,219.85 				"/>
			</g>
			<g id="XMLID_848_">
				<polygon id="XMLID_850_" points="187.955,228.888 187.093,228.888 191.489,219.85 192.351,219.85 				"/>
				<polygon id="XMLID_849_" points="190.626,228.888 189.763,228.888 194.159,219.85 195.022,219.85 				"/>
			</g>
		</g>
		<g id="XMLID_1042_" style="opacity:0.1;">
			<g id="XMLID_1052_">
				<polygon id="XMLID_1054_" points="148.054,280.417 147.191,280.417 151.587,271.378 152.45,271.378 				"/>
				<polygon id="XMLID_1053_" points="150.724,280.417 149.862,280.417 154.258,271.378 155.12,271.378 				"/>
			</g>
			<g id="XMLID_1049_">
				<polygon id="XMLID_1051_" points="180.65,280.417 179.788,280.417 184.184,271.378 185.046,271.378 				"/>
				<polygon id="XMLID_1050_" points="183.321,280.417 182.458,280.417 186.854,271.378 187.717,271.378 				"/>
			</g>
			<g id="XMLID_1046_">
				<polygon id="XMLID_1048_" points="148.054,309.792 147.191,309.792 151.587,300.753 152.45,300.753 				"/>
				<polygon id="XMLID_1047_" points="150.724,309.792 149.862,309.792 154.258,300.753 155.12,300.753 				"/>
			</g>
			<g id="XMLID_1043_">
				<polygon id="XMLID_1045_" points="180.65,309.792 179.788,309.792 184.184,300.753 185.046,300.753 				"/>
				<polygon id="XMLID_1044_" points="183.321,309.792 182.458,309.792 186.854,300.753 187.717,300.753 				"/>
			</g>
		</g>
		<g id="XMLID_1055_" style="opacity:0.1;">
			<g id="XMLID_1065_">
				<polygon id="XMLID_1067_" points="316.567,279.932 315.704,279.932 320.1,270.894 320.963,270.894 				"/>
				<polygon id="XMLID_1066_" points="319.237,279.932 318.375,279.932 322.77,270.894 323.633,270.894 				"/>
			</g>
			<g id="XMLID_1062_">
				<polygon id="XMLID_1064_" points="349.163,279.932 348.301,279.932 352.697,270.894 353.559,270.894 				"/>
				<polygon id="XMLID_1063_" points="351.834,279.932 350.971,279.932 355.367,270.894 356.23,270.894 				"/>
			</g>
			<g id="XMLID_1059_">
				<polygon id="XMLID_1061_" points="316.567,309.307 315.704,309.307 320.1,300.269 320.963,300.269 				"/>
				<polygon id="XMLID_1060_" points="319.237,309.307 318.375,309.307 322.77,300.269 323.633,300.269 				"/>
			</g>
			<g id="XMLID_1056_">
				<polygon id="XMLID_1058_" points="349.163,309.307 348.301,309.307 352.697,300.269 353.559,300.269 				"/>
				<polygon id="XMLID_1057_" points="351.834,309.307 350.971,309.307 355.367,300.269 356.23,300.269 				"/>
			</g>
		</g>
		<g id="XMLID_863_" style="opacity:0.1;">
			<g id="XMLID_1026_">
				<polygon id="XMLID_1028_" points="230.929,199.513 230.067,199.513 234.462,190.475 235.325,190.475 				"/>
				<polygon id="XMLID_1027_" points="233.6,199.513 232.737,199.513 237.133,190.475 237.996,190.475 				"/>
			</g>
			<g id="XMLID_981_">
				<polygon id="XMLID_1025_" points="263.526,199.513 262.663,199.513 267.059,190.475 267.922,190.475 				"/>
				<polygon id="XMLID_1024_" points="266.196,199.513 265.333,199.513 269.729,190.475 270.592,190.475 				"/>
			</g>
			<g id="XMLID_887_">
				<polygon id="XMLID_889_" points="230.929,228.888 230.067,228.888 234.462,219.85 235.325,219.85 				"/>
				<polygon id="XMLID_888_" points="233.6,228.888 232.737,228.888 237.133,219.85 237.996,219.85 				"/>
			</g>
			<g id="XMLID_882_">
				<polygon id="XMLID_884_" points="263.526,228.888 262.663,228.888 267.059,219.85 267.922,219.85 				"/>
				<polygon id="XMLID_883_" points="266.196,228.888 265.333,228.888 269.729,219.85 270.592,219.85 				"/>
			</g>
		</g>
		<g id="XMLID_1029_" style="opacity:0.1;">
			<g id="XMLID_1039_">
				<polygon id="XMLID_1041_" points="304.604,199.513 303.741,199.513 308.137,190.475 309,190.475 				"/>
				<polygon id="XMLID_1040_" points="307.274,199.513 306.412,199.513 310.807,190.475 311.67,190.475 				"/>
			</g>
			<g id="XMLID_1036_">
				<polygon id="XMLID_1038_" points="337.2,199.513 336.338,199.513 340.733,190.475 341.596,190.475 				"/>
				<polygon id="XMLID_1037_" points="339.871,199.513 339.008,199.513 343.404,190.475 344.267,190.475 				"/>
			</g>
			<g id="XMLID_1033_">
				<polygon id="XMLID_1035_" points="304.604,228.888 303.741,228.888 308.137,219.85 309,219.85 				"/>
				<polygon id="XMLID_1034_" points="307.274,228.888 306.412,228.888 310.807,219.85 311.67,219.85 				"/>
			</g>
			<g id="XMLID_1030_">
				<polygon id="XMLID_1032_" points="337.2,228.888 336.338,228.888 340.733,219.85 341.596,219.85 				"/>
				<polygon id="XMLID_1031_" points="339.871,228.888 339.008,228.888 343.404,219.85 344.267,219.85 				"/>
			</g>
		</g>
		<rect id="XMLID_1091_" x="214.41" y="262.453" style="opacity:0.15;" width="71.052" height="3.114"/>
		<g id="XMLID_1104_">
			<path id="XMLID_1156_" style="fill:#67362D;" d="M329.655,345.004L329.655,345.004c-0.804,0-1.456-0.652-1.456-1.456V325.41
				h2.912v18.138C331.11,344.352,330.459,345.004,329.655,345.004z"/>
			
				<rect id="XMLID_1152_" x="325.495" y="325.278" transform="matrix(0.7071 -0.7071 0.7071 0.7071 -137.7816 327.1542)" style="fill:#67362D;" width="1.049" height="9.233"/>
			<polygon id="XMLID_1149_" style="fill:#67362D;" points="329.655,337.947 330.599,338.404 336.201,326.716 335.256,326.259 			
				"/>
			<path id="XMLID_1107_" style="fill:#02797D;" d="M323.556,326.118c0,0-4.339,3.441-8.105,1.023
				c-3.62-2.324-3.846-7.251-0.866-9.207c0,0-2.79-4.931,0.172-8.293c3.017-3.423,7.115-1.84,7.115-1.84s1.257-6.054,7.311-5.868
				c6.054,0.186,6.194,5.681,6.194,5.681s4.887-1.741,7.404,2.934c1.956,3.632-0.047,7.125-0.047,7.125s4.729,3.197,1.517,8.286
				c-2.557,4.053-8.263,1.495-8.263,1.495s-1.49,3.541-6.138,3.541C326.389,330.997,324.366,328.951,323.556,326.118z"/>
		</g>
		<g id="XMLID_1147_">
			<path id="XMLID_1170_" style="fill:#67362D;" d="M168.867,345.822L168.867,345.822c0.959,0,1.736-0.777,1.736-1.736v-21.632
				h-3.472v21.632C167.131,345.045,167.908,345.822,168.867,345.822z"/>
			
				<rect id="XMLID_1165_" x="172.577" y="322.297" transform="matrix(-0.7071 -0.7071 0.7071 -0.7071 63.8851 682.0669)" style="fill:#67362D;" width="1.251" height="11.011"/>
			<polygon id="XMLID_1153_" style="fill:#67362D;" points="168.867,337.406 167.741,337.951 161.06,324.012 162.186,323.467 			"/>
			<path id="XMLID_1148_" style="fill:#0D9393;" d="M176.14,323.299c0,0,5.175,4.104,9.666,1.22
				c4.317-2.772,4.587-8.648,1.032-10.98c0,0,3.327-5.881-0.206-9.89c-3.598-4.082-8.485-2.194-8.485-2.194s-1.5-7.22-8.719-6.998
				c-7.22,0.222-7.387,6.776-7.387,6.776s-5.828-2.076-8.831,3.499c-2.333,4.332,0.056,8.497,0.056,8.497s-5.64,3.812-1.809,9.883
				c3.05,4.833,9.854,1.783,9.854,1.783s1.777,4.223,7.32,4.223C172.762,329.118,175.174,326.678,176.14,323.299z"/>
		</g>
		<polygon id="XMLID_1195_" style="fill:#0286CB;" points="397.974,215.611 394.2,214.621 391.246,217.169 391.021,213.274 
			387.685,211.251 391.319,209.834 392.212,206.036 394.684,209.055 398.572,208.73 396.464,212.014 		"/>
		<polygon id="XMLID_1194_" style="fill:#02797D;" points="112.154,200.958 109.363,200.273 107.215,202.184 107.005,199.317 
			104.524,197.865 107.185,196.779 107.799,193.971 109.655,196.167 112.515,195.883 111,198.326 		"/>
		<polygon id="XMLID_38_" style="fill:#F26A40;" points="116.15,452.841 113.358,452.155 111.211,454.066 111,451.2 108.52,449.748 
			111.181,448.662 111.795,445.854 113.65,448.049 116.51,447.765 114.996,450.208 		"/>
		<polygon id="XMLID_1113_" style="fill:#FEAD19;" points="460.429,133.286 459.033,131.49 456.761,131.622 458.038,129.739 
			457.21,127.62 459.395,128.252 461.155,126.81 461.229,129.084 463.145,130.312 461.005,131.085 		"/>
		<path id="XMLID_1203_" style="fill:#FEAD19;" d="M151.397,39.535c0,1.602-1.299,2.901-2.901,2.901c-1.602,0-2.9-1.299-2.9-2.901
			c0-1.602,1.299-2.901,2.9-2.901C150.098,36.634,151.397,37.933,151.397,39.535z"/>
		<path id="XMLID_1208_" style="fill:#F26A40;" d="M278.167,126.999c0,1.143-0.926,2.069-2.069,2.069
			c-1.143,0-2.069-0.926-2.069-2.069c0-1.143,0.926-2.069,2.069-2.069C277.24,124.93,278.167,125.856,278.167,126.999z"/>
		<path id="XMLID_1199_" style="fill:#FEAD19;" d="M459.956,321.545c0,1.602-1.299,2.9-2.901,2.9s-2.901-1.299-2.901-2.9
			c0-1.602,1.299-2.901,2.901-2.901S459.956,319.943,459.956,321.545z"/>
		<path id="XMLID_73_" style="fill:#FEAD19;" d="M38.539,395.554c0,1.602-1.299,2.901-2.901,2.901c-1.602,0-2.901-1.299-2.901-2.901
			c0-1.602,1.299-2.901,2.901-2.901C37.241,392.654,38.539,393.953,38.539,395.554z"/>
		<path id="XMLID_74_" style="fill:#FEAD19;" d="M358.349,36.204c0,1.602-1.299,2.901-2.901,2.901c-1.602,0-2.901-1.299-2.901-2.901
			c0-1.602,1.299-2.901,2.901-2.901C357.051,33.304,358.349,34.602,358.349,36.204z"/>
		<g id="XMLID_1197_">
			
				<rect id="XMLID_00000047032523644946363440000012769167316565747116_" x="114.1" y="390.928" style="fill:none;" width="271.801" height="40.471"/>
			<text transform="matrix(1 0 0 1 125.0919 397.008)"><tspan x="0" y="0" style="fill:#4F4F4F; font-family:'OpenSans'; font-size:8px;">Lorem ipsum dolor sit amet, consectetuer adipiscing elit, sed </tspan><tspan x="-6.84" y="15" style="fill:#4F4F4F; font-family:'OpenSans'; font-size:8px;">diam nonummy nibh euismod tincidunt ut laoreet dolore magna </tspan><tspan x="79.565" y="30" style="fill:#4F4F4F; font-family:'OpenSans'; font-size:8px;">aliquam erat volutpat.</tspan></text>
		</g>
		<g>
			<path style="fill:#F26A40;" d="M429.61,160.162l-45.203-50.853c-0.958-1.078-2.608-1.175-3.686-0.217l-4.868,4.327
				c-1.078,0.958-1.175,2.608-0.217,3.686l45.203,50.853L429.61,160.162z"/>
			
				<rect x="387.891" y="117.584" transform="matrix(-0.6644 -0.7474 0.7474 -0.6644 555.3838 496.3045)" style="fill:#FFFFFF;" width="2.475" height="11.734"/>
			
				<rect x="378.191" y="144.894" transform="matrix(-0.6644 -0.7474 0.7474 -0.6644 563.8024 546.8828)" style="fill:#02797D;" width="53.006" height="3.911"/>
			
				<rect x="381.114" y="142.295" transform="matrix(-0.6644 -0.7474 0.7474 -0.6644 570.6102 544.7428)" style="fill:#26A595;" width="53.006" height="3.911"/>
			
				<rect x="384.038" y="139.697" transform="matrix(-0.6644 -0.7474 0.7474 -0.6644 577.4183 542.6026)" style="fill:#02797D;" width="53.006" height="3.911"/>
			<polygon style="fill:#F9C990;" points="420.84,167.957 431.893,171.561 429.61,160.162 			"/>
			<polyline style="fill:#02797D;" points="428.944,170.599 431.893,171.561 431.284,168.519 			"/>
		</g>
		<g>
			<path style="fill:#F26A40;" d="M86.604,393.11l-37.56-56.733c-0.796-1.202-2.416-1.532-3.618-0.736l-5.43,3.595
				c-1.202,0.796-1.532,2.416-0.736,3.618l37.56,56.733L86.604,393.11z"/>
			
				<rect x="50.481" y="345.177" transform="matrix(-0.552 -0.8338 0.8338 -0.552 -212.4434 587.9526)" style="fill:#FFFFFF;" width="2.475" height="11.734"/>
			
				<rect x="37.317" y="374.453" transform="matrix(-0.552 -0.8338 0.8338 -0.552 -214.8065 637.4139)" style="fill:#02797D;" width="53.006" height="3.911"/>
			
				<rect x="40.578" y="372.294" transform="matrix(-0.552 -0.8338 0.8338 -0.552 -207.9447 636.7819)" style="fill:#26A595;" width="53.006" height="3.911"/>
			
				<rect x="43.84" y="370.135" transform="matrix(-0.552 -0.8338 0.8338 -0.552 -201.0824 636.1505)" style="fill:#02797D;" width="53.006" height="3.911"/>
			<polygon style="fill:#F9C990;" points="76.82,399.587 87.252,404.717 86.604,393.11 			"/>
			<polyline style="fill:#02797D;" points="84.469,403.348 87.252,404.717 87.079,401.62 			"/>
		</g>
		<g>
			<path style="fill:#F26A40;" d="M75.318,128.108l4.475,43.089l49.5-48.695L75.318,128.108z M83.631,133.858l28.532-2.963
				l-26.124,26.153L83.631,133.858z"/>
			<g>
				<g id="XMLID_704_">
					<g id="XMLID_706_">
						<g id="XMLID_707_">
							
								<rect x="110.08" y="124.401" transform="matrix(0.9947 -0.1031 0.1031 0.9947 -12.3569 12.0702)" style="fill:#FEAD19;" width="1" height="2.33"/>
						</g>
						<g id="XMLID_709_">
							
								<rect x="114.896" y="123.901" transform="matrix(0.9947 -0.1031 0.1031 0.9947 -12.2797 12.5642)" style="fill:#FEAD19;" width="1" height="2.33"/>
						</g>
					</g>
					<g id="XMLID_710_">
						<g id="XMLID_712_">
							
								<rect x="100.38" y="125.409" transform="matrix(0.9946 -0.1035 0.1035 0.9946 -12.5618 11.124)" style="fill:#FEAD19;" width="0.999" height="2.33"/>
						</g>
						<g id="XMLID_713_">
							
								<rect x="105.196" y="124.909" transform="matrix(0.9947 -0.1031 0.1031 0.9947 -12.4353 11.5694)" style="fill:#FEAD19;" width="1" height="2.33"/>
						</g>
					</g>
					<g id="XMLID_718_">
						<g id="XMLID_721_">
							
								<rect x="90.68" y="126.417" transform="matrix(0.9946 -0.1036 0.1036 0.9946 -12.7229 10.1293)" style="fill:#FEAD19;" width="0.999" height="2.329"/>
						</g>
						<g id="XMLID_722_">
							
								<rect x="95.496" y="125.917" transform="matrix(0.9947 -0.1031 0.1031 0.9947 -12.5955 10.579)" style="fill:#FEAD19;" width="1" height="2.329"/>
						</g>
					</g>
					<g id="XMLID_723_">
						<g id="XMLID_724_">
							
								<rect x="80.98" y="127.424" transform="matrix(0.9947 -0.1031 0.1031 0.9947 -12.8231 9.0857)" style="fill:#FEAD19;" width="1" height="2.33"/>
						</g>
						<g id="XMLID_725_">
							
								<rect x="85.796" y="126.924" transform="matrix(0.9947 -0.1031 0.1031 0.9947 -12.7459 9.5795)" style="fill:#FEAD19;" width="1" height="2.33"/>
						</g>
					</g>
				</g>
				<g id="XMLID_726_">
					<g id="XMLID_973_">
						<g id="XMLID_975_">
							
								<rect x="76.445" y="138.311" transform="matrix(0.9946 -0.1036 0.1036 0.9946 -13.9573 8.7831)" style="fill:#FEAD19;" width="2.33" height="1"/>
						</g>
						<g id="XMLID_974_">
							
								<rect x="75.944" y="133.495" transform="matrix(0.9946 -0.1035 0.1035 0.9946 -13.4599 8.7045)" style="fill:#FEAD19;" width="2.33" height="1"/>
						</g>
					</g>
					<g id="XMLID_735_">
						<g id="XMLID_972_">
							
								<rect x="77.452" y="148.011" transform="matrix(0.9946 -0.1036 0.1036 0.9946 -14.9563 8.9396)" style="fill:#FEAD19;" width="2.33" height="1"/>
						</g>
						<g id="XMLID_971_">
							
								<rect x="76.952" y="143.196" transform="matrix(0.9946 -0.1035 0.1035 0.9946 -14.4589 8.8609)" style="fill:#FEAD19;" width="2.329" height="1"/>
						</g>
					</g>
					<g id="XMLID_732_">
						<g id="XMLID_734_">
							
								<rect x="78.459" y="157.712" transform="matrix(0.9946 -0.1036 0.1036 0.9946 -15.9554 9.096)" style="fill:#FEAD19;" width="2.33" height="1"/>
						</g>
						<g id="XMLID_733_">
							
								<rect x="77.959" y="152.895" transform="matrix(0.9946 -0.1035 0.1035 0.9946 -15.4579 9.0174)" style="fill:#FEAD19;" width="2.33" height="1"/>
						</g>
					</g>
				</g>
			</g>
		</g>
		<g>
			<path style="fill:#0286CB;" d="M455.857,386.176l-2.478-0.902c-0.51-0.186-0.842-0.683-0.807-1.225
				c0.028-0.436,0.042-0.876,0.042-1.32c0-0.319-0.008-0.636-0.023-0.951c-0.028-0.569,0.363-1.074,0.913-1.222l2.628-0.704
				c0.658-0.176,1.048-0.853,0.872-1.51l-1.554-5.801c-0.176-0.658-0.852-1.048-1.51-0.872l-2.995,0.803
				c-0.537,0.144-1.093-0.096-1.384-0.57c-0.343-0.559-0.71-1.1-1.103-1.622c-0.345-0.459-0.31-1.101,0.059-1.54l2.021-2.409
				c0.438-0.522,0.37-1.299-0.152-1.737l-4.593-3.854c-0.525-0.44-1.307-0.369-1.743,0.159l-2.151,2.604
				c-0.35,0.424-0.936,0.561-1.442,0.344c-1.093-0.469-2.3-0.857-3.319-1.153c-0.529-0.154-0.895-0.635-0.895-1.186v-3.837
				c0-0.681-0.552-1.233-1.233-1.233h-6.464c-0.681,0-1.233,0.552-1.233,1.233v3.866c0,0.548-0.36,1.03-0.886,1.183
				c-0.481,0.14-1.046,0.301-1.591,0.479c-0.521,0.171-1.092-0.024-1.401-0.477l-1.903-2.792c-0.388-0.569-1.166-0.71-1.729-0.314
				l-4.865,3.428c-0.557,0.392-0.69,1.162-0.297,1.719l1.855,2.632c0.328,0.465,0.309,1.102-0.069,1.527
				c-0.427,0.479-0.832,0.978-1.214,1.496c-0.33,0.448-0.907,0.639-1.43,0.449l-2.961-1.079c-0.64-0.233-1.348,0.097-1.581,0.737
				l-2.052,5.643c-0.233,0.64,0.097,1.347,0.737,1.58l2.624,0.955c0.536,0.195,0.878,0.733,0.803,1.298
				c-0.119,0.893-0.183,1.804-0.183,2.729c0,0.133,0.008,0.264,0.01,0.397l-3.527,0.945c-0.658,0.176-1.048,0.853-0.872,1.51
				l1.555,5.801c0.176,0.658,0.852,1.048,1.51,0.872l2.244-0.601c0.552-0.148,1.141,0.099,1.403,0.607
				c0.385,0.744,0.813,1.461,1.281,2.149c0.306,0.449,0.262,1.05-0.087,1.467l-1.441,1.717c-0.438,0.522-0.37,1.299,0.152,1.737
				l4.57,3.835c0.534,0.448,1.332,0.365,1.762-0.182l1.117-1.421c0.361-0.459,0.997-0.609,1.516-0.342
				c1.304,0.671,2.651,1.206,4.062,1.582c0.53,0.141,0.888,0.635,0.888,1.184v2.05c0,0.681,0.552,1.233,1.233,1.233h6.464
				c0.681,0,1.233-0.552,1.233-1.233v-2.059c0-0.554,0.367-1.041,0.902-1.186c0.821-0.222,1.672-0.498,2.492-0.822
				c0.53-0.21,1.133-0.022,1.457,0.447l1.101,1.591c0.389,0.563,1.162,0.701,1.722,0.308l4.9-3.438
				c0.558-0.391,0.692-1.161,0.301-1.718l-1.259-1.794c-0.313-0.446-0.305-1.051,0.041-1.471c0.535-0.651,1.03-1.336,1.483-2.051
				c0.306-0.482,0.914-0.677,1.45-0.481l2.127,0.775c0.64,0.233,1.348-0.097,1.581-0.737l2.053-5.643
				C456.827,387.116,456.497,386.409,455.857,386.176z M431.893,391.177c-5.15,0-9.325-4.175-9.325-9.325
				c0-5.15,4.175-9.325,9.325-9.325c5.15,0,9.325,4.175,9.325,9.325C441.218,387.003,437.043,391.177,431.893,391.177z"/>
			<path style="fill:#FEAD19;" d="M431.893,367.238c-8.071,0-14.615,6.543-14.615,14.615c0,8.071,6.543,14.615,14.615,14.615
				c8.071,0,14.615-6.543,14.615-14.615C446.508,373.781,439.964,367.238,431.893,367.238z M431.893,391.177
				c-5.15,0-9.325-4.175-9.325-9.325c0-5.15,4.175-9.325,9.325-9.325c5.15,0,9.325,4.175,9.325,9.325
				C441.218,387.003,437.043,391.177,431.893,391.177z"/>
		</g>
		<g>
			<path style="fill:#F26A40;" d="M449.001,59.632c0,0-2.04,5.336-21.227,5.336c-18.998,0-21.412-5.336-21.412-5.336V40.551h42.639
				V59.632z"/>
			<path style="fill:#FEAD19;" d="M449.001,57.129c0,0-2.04,5.336-21.227,5.336c-18.998,0-21.412-5.336-21.412-5.336V41.667h42.639
				V57.129z"/>
			<path style="opacity:0.2;fill:#565656;" d="M411.135,44.471v18.312c0,0-3.679-1.311-4.773-3.151V43.424L411.135,44.471z"/>
			<polygon style="fill:#025289;" points="427.701,52.078 394.898,42.734 427.701,33.389 460.503,42.734 			"/>
			<g id="XMLID_674_">
				<path style="fill:#FEAD19;" d="M454.057,73.699c-0.137,0-0.249-0.11-0.25-0.248l-0.24-28.589l-25.82-2.946
					c-0.137-0.016-0.235-0.14-0.22-0.277c0.016-0.136,0.127-0.236,0.276-0.22l26.04,2.971c0.126,0.015,0.221,0.12,0.222,0.247
					l0.242,28.811c0.001,0.138-0.109,0.251-0.248,0.252C454.058,73.699,454.058,73.699,454.057,73.699z"/>
			</g>
			<ellipse id="XMLID_670_" style="fill:#F26A40;" cx="454.056" cy="75.293" rx="1.427" ry="2.749"/>
			<path id="XMLID_671_" style="fill:#F26A40;" d="M426.206,41.459c-0.077,0.608,0.618,1.197,1.552,1.315
				c0.934,0.118,1.754-0.279,1.83-0.887c0.077-0.608-0.618-1.197-1.552-1.315C427.103,40.454,426.283,40.851,426.206,41.459z"/>
		</g>
		<g>
			<path style="fill:#FEAD19;" d="M80.952,246.501c0,0-0.964,5.631-19.784,9.361c-18.636,3.694-22.041-1.071-22.041-1.071
				l-3.71-18.717l41.825-8.29L80.952,246.501z"/>
			<path style="fill:#0286CB;" d="M80.466,244.045c0,0-0.964,5.631-19.784,9.361c-18.636,3.694-22.041-1.071-22.041-1.071
				l-3.006-15.166l41.825-8.29L80.466,244.045z"/>
			<path style="opacity:0.2;fill:#565656;" d="M40.861,238.991l3.56,17.962c0,0-3.863-0.57-5.295-2.162l-3.151-15.899
				L40.861,238.991z"/>
			<polygon style="fill:#025289;" points="58.589,243.232 24.596,240.443 54.956,224.9 88.949,227.688 			"/>
			<g id="XMLID_70_">
				<path style="fill:#F26A40;" d="M88.647,259.316c-0.134,0.027-0.266-0.06-0.293-0.195l-5.794-27.997l-25.9,2.131
					c-0.137,0.011-0.258-0.091-0.269-0.229c-0.011-0.137,0.079-0.256,0.228-0.27l26.121-2.148c0.126-0.01,0.24,0.075,0.265,0.199
					l5.839,28.214c0.028,0.135-0.059,0.267-0.194,0.295C88.648,259.316,88.648,259.316,88.647,259.316z"/>
			</g>
			<path id="XMLID_40_" style="fill:#FEAD19;" d="M87.556,261.158c0.295,1.489,1.161,2.572,1.934,2.419
				c0.773-0.153,1.161-1.484,0.866-2.974c-0.295-1.489-1.161-2.572-1.934-2.419C87.649,258.337,87.261,259.669,87.556,261.158z"/>
			<path id="XMLID_37_" style="fill:#FEAD19;" d="M55.059,233.107c0.043,0.611,0.839,1.054,1.778,0.988
				c0.939-0.066,1.666-0.615,1.623-1.226c-0.043-0.611-0.839-1.054-1.778-0.988C55.743,231.946,55.016,232.495,55.059,233.107z"/>
		</g>
		<polygon id="XMLID_72_" style="fill:#F26A40;" points="39.306,113.552 37.91,111.757 35.639,111.889 36.915,110.006 
			36.087,107.887 38.273,108.519 40.032,107.076 40.107,109.35 42.022,110.578 39.882,111.352 		"/>
		<path id="XMLID_47_" style="fill:#F26A40;" d="M349.11,437.806c0,1.143-0.926,2.069-2.069,2.069c-1.143,0-2.069-0.926-2.069-2.069
			c0-1.143,0.926-2.069,2.069-2.069C348.184,435.738,349.11,436.664,349.11,437.806z"/>
	</g>
</g>
<g id="DESIGNED_BY_FREEPIK">
	<g id="XMLID_1_">
		<g id="XMLID_319_">
			<g id="XMLID_338_">
				<path id="XMLID_346_" d="M260.104,475.151c-0.432,0.443-0.803,0.931-1.108,1.453l-0.465-0.241
					c-0.067-0.298-0.349-0.503-0.659-0.466c-0.331,0.039-0.568,0.339-0.529,0.67c0.039,0.331,0.339,0.568,0.67,0.529
					c0.066-0.008,0.127-0.026,0.184-0.052l0.451,0.234c-0.251,0.554-0.433,1.139-0.539,1.744l0.747,0.132
					c0.23-1.306,0.85-2.507,1.792-3.473L260.104,475.151z"/>
				<path id="XMLID_345_" d="M265.592,472.849c-0.171,0-0.341,0.006-0.51,0.017l-0.074-0.626c0.188-0.149,0.296-0.389,0.266-0.644
					c-0.046-0.393-0.402-0.674-0.795-0.628c-0.393,0.046-0.674,0.402-0.628,0.795c0.03,0.254,0.189,0.461,0.404,0.564l0.074,0.624
					c-0.714,0.116-1.403,0.332-2.06,0.646l0.327,0.684c0.934-0.447,1.942-0.673,2.995-0.673c0.496,0,0.993,0.053,1.475,0.158
					l0.161-0.741C266.692,472.908,266.142,472.849,265.592,472.849z"/>
				<path id="XMLID_344_" d="M272.194,475.396c0.331-0.04,0.566-0.341,0.526-0.672c-0.04-0.331-0.341-0.566-0.672-0.526
					c-0.309,0.038-0.535,0.304-0.53,0.609l-0.416,0.363c-0.418-0.43-0.889-0.813-1.408-1.139l-0.404,0.641
					c1.134,0.715,2.021,1.726,2.563,2.925l0.69-0.313c-0.251-0.554-0.567-1.072-0.942-1.545l0.402-0.351
					C272.065,475.401,272.129,475.404,272.194,475.396z"/>
				<path id="XMLID_343_" d="M265.044,483.057c-0.386,0.023-0.775,0.035-1.157,0.035c-0.88,0-1.733-0.061-2.478-0.179
					c-0.39-0.062-0.846-0.155-1.27-0.292c1.046,1.861,3.069,3.125,5.388,3.125c2.855,0,5.262-1.916,5.95-4.504
					c-0.682,0.449-1.505,0.825-2.459,1.123C267.839,482.733,266.463,482.972,265.044,483.057z"/>
				<path id="XMLID_339_" d="M265.592,474.365c-3.352,0-6.08,2.666-6.08,5.944c0,0.426,0.046,0.849,0.137,1.261
					c0.673,0.483,2.706,0.89,5.348,0.731c2.879-0.173,5.297-0.957,6.672-2.159c-0.006-0.195-0.021-0.39-0.045-0.582
					C271.244,476.599,268.65,474.365,265.592,474.365z M263.432,480.88c-1.02,0-1.85-0.83-1.85-1.85c0-1.02,0.83-1.85,1.85-1.85
					c1.02,0,1.85,0.83,1.85,1.85C265.282,480.05,264.452,480.88,263.432,480.88z M268.17,479.972c-0.75,0-1.36-0.61-1.36-1.36
					c0-0.75,0.61-1.361,1.36-1.361c0.75,0,1.361,0.61,1.361,1.361C269.53,479.362,268.92,479.972,268.17,479.972z"/>
			</g>
			<path id="XMLID_336_" d="M281.595,476.232c-0.295-0.116-0.805-0.309-1.382-0.237c-0.551,0.068-0.844,0.34-0.844,1.007v0.866
				h2.228v1.717h-2.228v5.455h-1.932v-5.455h-1.34v-1.717h1.34v-0.888c0-1.68,0.896-2.783,2.568-2.783
				c0.643,0,1.157,0.122,1.59,0.308L281.595,476.232z"/>
			<path id="XMLID_334_" d="M286.298,479.564c-0.177-0.03-0.358-0.046-0.526-0.046c-0.896,0-1.51,0.548-1.51,1.613v3.908h-1.932
				v-7.172h1.873v0.785c0.451-0.674,1.14-0.977,2.021-0.977c0.414,0,0.848,0.128,1.094,0.337L286.298,479.564z"/>
			<path id="XMLID_331_" d="M293.965,481.442c0,0.222-0.015,0.489-0.037,0.651h-5.085c0.207,1.036,0.933,1.488,1.843,1.488
				c0.622,0,1.295-0.252,1.813-0.688l1.133,1.243c-0.814,0.748-1.85,1.088-3.057,1.088c-2.198,0-3.723-1.495-3.723-3.753
				c0-2.257,1.48-3.797,3.627-3.797C292.544,477.675,293.958,479.207,293.965,481.442z M288.851,480.776h3.175
				c-0.177-0.918-0.733-1.436-1.562-1.436C289.554,479.34,289.021,479.888,288.851,480.776z"/>
			<path id="XMLID_328_" d="M301.618,481.442c0,0.222-0.015,0.489-0.037,0.651h-5.085c0.207,1.036,0.933,1.488,1.843,1.488
				c0.622,0,1.295-0.252,1.814-0.688l1.132,1.243c-0.814,0.748-1.85,1.088-3.057,1.088c-2.198,0-3.723-1.495-3.723-3.753
				c0-2.257,1.48-3.797,3.627-3.797C300.197,477.675,301.611,479.207,301.618,481.442z M296.504,480.776h3.175
				c-0.178-0.918-0.733-1.436-1.562-1.436C297.207,479.34,296.674,479.888,296.504,480.776z"/>
			<path id="XMLID_325_" d="M309.964,481.45c0,2.154-1.495,3.775-3.471,3.775c-0.962,0-1.643-0.378-2.109-0.933V488h-1.924v-10.133
				h1.887v0.792c0.466-0.585,1.155-0.984,2.139-0.984C308.469,477.675,309.964,479.296,309.964,481.45z M304.287,481.45
				c0,1.132,0.748,1.976,1.843,1.976c1.14,0,1.85-0.881,1.85-1.976c0-1.095-0.71-1.976-1.85-1.976
				C305.035,479.474,304.287,480.317,304.287,481.45z"/>
			<path id="XMLID_322_" d="M313.068,475.521c0,0.696-0.54,1.229-1.236,1.229c-0.696,0-1.229-0.533-1.229-1.229
				c0-0.696,0.533-1.243,1.229-1.243C312.527,474.278,313.068,474.826,313.068,475.521z M312.809,485.039h-1.932v-7.172h1.932
				V485.039z"/>
			<path id="XMLID_320_" d="M316.032,480.421l2.701-2.554h2.368l-3.479,3.375l3.501,3.797h-2.376l-2.716-2.901v2.901H314.1v-10.658
				h1.932V480.421z"/>
		</g>
		<g id="XMLID_2_">
			<path id="XMLID_3_" d="M184.412,484.974v-1.055c-0.527,0.718-1.391,1.23-2.387,1.23c-1.846,0-3.149-1.406-3.149-3.706
				c0-2.256,1.289-3.721,3.149-3.721c0.952,0,1.816,0.469,2.387,1.245v-3.765h1.099v9.77H184.412z M184.412,483.056v-3.208
				c-0.395-0.615-1.245-1.143-2.124-1.143c-1.421,0-2.27,1.172-2.27,2.739c0,1.567,0.85,2.724,2.27,2.724
				C183.168,484.169,184.017,483.671,184.412,483.056z"/>
			<path id="XMLID_6_" d="M186.932,481.43c0-2.051,1.465-3.706,3.486-3.706c2.139,0,3.398,1.67,3.398,3.794v0.279h-5.727
				c0.088,1.333,1.025,2.446,2.549,2.446c0.805,0,1.626-0.322,2.182-0.893l0.527,0.718c-0.703,0.703-1.655,1.084-2.812,1.084
				C188.44,485.15,186.932,483.642,186.932,481.43z M190.403,478.632c-1.509,0-2.256,1.274-2.314,2.358h4.643
				C192.718,479.935,192.015,478.632,190.403,478.632z"/>
			<path id="XMLID_9_" d="M194.607,484.037l0.571-0.791c0.469,0.542,1.362,1.011,2.329,1.011c1.084,0,1.67-0.513,1.67-1.216
				c0-1.714-4.38-0.659-4.38-3.281c0-1.098,0.952-2.036,2.636-2.036c1.201,0,2.051,0.454,2.622,1.026l-0.513,0.762
				c-0.424-0.513-1.201-0.894-2.109-0.894c-0.967,0-1.567,0.483-1.567,1.113c0,1.553,4.38,0.527,4.38,3.281
				c0,1.187-0.952,2.139-2.783,2.139C196.306,485.15,195.325,484.799,194.607,484.037z"/>
			<path id="XMLID_11_" d="M201.477,476.156c0-0.41,0.337-0.747,0.732-0.747c0.41,0,0.747,0.337,0.747,0.747
				c0,0.41-0.337,0.732-0.747,0.732C201.814,476.889,201.477,476.567,201.477,476.156z M201.667,484.974V477.9h1.099v7.075H201.667z
				"/>
			<path id="XMLID_14_" d="M204.582,486.791l0.556-0.82c0.586,0.703,1.289,0.967,2.3,0.967c1.172,0,2.27-0.571,2.27-2.124v-1.011
				c-0.513,0.718-1.377,1.26-2.373,1.26c-1.845,0-3.149-1.377-3.149-3.662c0-2.27,1.289-3.677,3.149-3.677
				c0.952,0,1.802,0.469,2.373,1.245V477.9h1.098v6.87c0,2.344-1.641,3.076-3.369,3.076
				C206.237,487.845,205.417,487.611,204.582,486.791z M209.709,482.939v-3.091c-0.381-0.615-1.23-1.143-2.109-1.143
				c-1.421,0-2.27,1.128-2.27,2.695c0,1.553,0.849,2.695,2.27,2.695C208.478,484.096,209.328,483.554,209.709,482.939z"/>
			<path id="XMLID_17_" d="M217.413,484.974v-4.629c0-1.245-0.63-1.641-1.582-1.641c-0.865,0-1.685,0.527-2.095,1.099v5.17h-1.099
				V477.9h1.099v1.025c0.498-0.586,1.464-1.201,2.519-1.201c1.48,0,2.256,0.747,2.256,2.285v4.966H217.413z"/>
			<path id="XMLID_19_" d="M219.932,481.43c0-2.051,1.465-3.706,3.486-3.706c2.139,0,3.398,1.67,3.398,3.794v0.279h-5.727
				c0.088,1.333,1.025,2.446,2.549,2.446c0.806,0,1.626-0.322,2.183-0.893l0.527,0.718c-0.703,0.703-1.655,1.084-2.812,1.084
				C221.441,485.15,219.932,483.642,219.932,481.43z M223.404,478.632c-1.509,0-2.256,1.274-2.314,2.358h4.643
				C225.718,479.935,225.015,478.632,223.404,478.632z"/>
			<path id="XMLID_22_" d="M233.35,484.974v-1.055c-0.527,0.718-1.392,1.23-2.388,1.23c-1.846,0-3.149-1.406-3.149-3.706
				c0-2.256,1.289-3.721,3.149-3.721c0.952,0,1.817,0.469,2.388,1.245v-3.765h1.098v9.77H233.35z M233.35,483.056v-3.208
				c-0.396-0.615-1.245-1.143-2.124-1.143c-1.421,0-2.27,1.172-2.27,2.739c0,1.567,0.849,2.724,2.27,2.724
				C232.105,484.169,232.954,483.671,233.35,483.056z"/>
			<path id="XMLID_25_" d="M239.692,484.974v-9.77h1.098v3.765c0.572-0.776,1.421-1.245,2.388-1.245
				c1.845,0,3.149,1.465,3.149,3.721c0,2.299-1.304,3.706-3.149,3.706c-0.996,0-1.86-0.513-2.388-1.23v1.055H239.692z
				 M242.9,484.169c1.436,0,2.285-1.157,2.285-2.724c0-1.567-0.85-2.739-2.285-2.739c-0.864,0-1.728,0.527-2.109,1.143v3.208
				C241.171,483.671,242.036,484.169,242.9,484.169z"/>
			<path id="XMLID_28_" d="M247.528,486.747c0.161,0.073,0.425,0.117,0.601,0.117c0.483,0,0.805-0.161,1.055-0.747l0.469-1.069
				l-2.959-7.148h1.187l2.358,5.801l2.344-5.801h1.201l-3.545,8.51c-0.425,1.025-1.143,1.421-2.08,1.435
				c-0.234,0-0.601-0.044-0.805-0.103L247.528,486.747z"/>
		</g>
	</g>
</g>
</svg>
